ffmpeg started on 2025-06-06 at 19:42:07
Report written to "D:\Convert\FFMetrics\reports\psnr_report-6.txt"
Log level: 32
Command line:
ffmpeg -hide_banner -nostdin -i "G:\\\xc0\xed\xe8\xec\xe5\\\xce\xed\xe3\xee\xe8\xed\xe3\xe8\\!_36_\xce\xf1\xe5\xed\xfc_2024\\DreamCast\\\xd0\xee\xed \xca\xe0\xec\xee\xed\xee\xf5\xe0\xf1\xe8 - \xcd\xe5\xe2\xec\xe5\xed\xff\xe5\xec\xfb\xe9 \xe4\xe5\xf2\xe5\xea\xf2\xe8\xe2\\\xd2\xc2-2\\DC_Kamonohashi_Ron_no_Kindan_Suiri_2nd_Season_03_Telegram_HEVC.mkv" -i "G:\\\xc0\xed\xe8\xec\xe5\\\xce\xed\xe3\xee\xe8\xed\xe3\xe8\\!_36_\xce\xf1\xe5\xed\xfc_2024\\DreamCast\\\xd0\xee\xed \xca\xe0\xec\xee\xed\xee\xf5\xe0\xf1\xe8 - \xcd\xe5\xe2\xec\xe5\xed\xff\xe5\xec\xfb\xe9 \xe4\xe5\xf2\xe5\xea\xf2\xe8\xe2\\\xd2\xc2-2\\DC_Kamonohashi_Ron_no_Kindan_Suiri_2nd_Season_03_Telegram.mp4" -lavfi "[0:v]settb=AVTB,setpts=PTS-STARTPTS,format=pix_fmts=yuv420p10,fps=24000/1001,scale=1920:1080:flags=bicubic[main];[1:v]settb=AVTB,setpts=PTS-STARTPTS,format=pix_fmts=yuv420p,fps=24000/1001,scale=1920:1080:flags=bicubic[ref];[main][ref]psnr=eof_action=endall:stats_file='D\\:/Convert/FFMetrics/logs/psnr_logfile-6.txt'" -f null -
Input #0, matroska,webm, from 'G:\Аниме\Онгоинги\!_36_Осень_2024\DreamCast\Рон Камонохаси - Невменяемый детектив\ТВ-2\DC_Kamonohashi_Ron_no_Kindan_Suiri_2nd_Season_03_Telegram_HEVC.mkv':
  Metadata:
    COMPATIBLE_BRANDS: isomiso2avc1mp41
    MAJOR_BRAND     : isom
    MINOR_VERSION   : 512
    ENCODER         : Lavf61.7.100
  Duration: 00:23:46.65, start: -0.021000, bitrate: 748 kb/s
  Stream #0:0: Video: hevc (Main 10), yuv420p10le(tv, bt709, progressive), 1920x1080 [SAR 1:1 DAR 16:9], 23.98 fps, 23.98 tbr, 1k tbn (default)
      Metadata:
        HANDLER_NAME    : VideoHandler
        VENDOR_ID       : [0][0][0][0]
        ENCODER         : Lavc61.19.100 libx265
        BPS             : 550841
        DURATION        : 00:23:46.549708333
        NUMBER_OF_FRAMES: 34203
        NUMBER_OF_BYTES : 98225223
        _STATISTICS_WRITING_APP: mkvpropedit v66.0.0 ('Josie') 64-bit
        _STATISTICS_WRITING_DATE_UTC: 2025-06-04 07:13:13
        _STATISTICS_TAGS: BPS DURATION NUMBER_OF_FRAMES NUMBER_OF_BYTES
  Stream #0:1: Audio: aac (LC), 48000 Hz, stereo, fltp (default)
      Metadata:
        HANDLER_NAME    : SoundHandler
        VENDOR_ID       : [0][0][0][0]
        ENCODER         : Lavc61.19.100 aac
        BPS             : 193911
        DURATION        : 00:23:46.645000000
        NUMBER_OF_FRAMES: 66875
        NUMBER_OF_BYTES : 34580448
        _STATISTICS_WRITING_APP: mkvpropedit v66.0.0 ('Josie') 64-bit
        _STATISTICS_WRITING_DATE_UTC: 2025-06-04 07:13:13
        _STATISTICS_TAGS: BPS DURATION NUMBER_OF_FRAMES NUMBER_OF_BYTES
Input #1, mov,mp4,m4a,3gp,3g2,mj2, from 'G:\Аниме\Онгоинги\!_36_Осень_2024\DreamCast\Рон Камонохаси - Невменяемый детектив\ТВ-2\DC_Kamonohashi_Ron_no_Kindan_Suiri_2nd_Season_03_Telegram.mp4':
  Metadata:
    major_brand     : isom
    minor_version   : 512
    compatible_brands: isomiso2avc1mp41
    encoder         : Lavf61.1.100
  Duration: 00:23:46.62, start: 0.000000, bitrate: 3219 kb/s
  Stream #1:0[0x1](und): Video: h264 (High) (avc1 / 0x31637661), yuv420p(tv, bt709, progressive), 1920x1080 [SAR 1:1 DAR 16:9], 3071 kb/s, 23.98 fps, 23.98 tbr, 24k tbn (default)
      Metadata:
        handler_name    : VideoHandler
        vendor_id       : [0][0][0][0]
        encoder         : Lavc61.3.100 h264_qsv
  Stream #1:1[0x2](und): Audio: aac (HE-AACv2) (mp4a / 0x6134706D), 48000 Hz, stereo, fltp, 144 kb/s (default)
      Metadata:
        handler_name    : SoundHandler
        vendor_id       : [0][0][0][0]
Stream mapping:
  Stream #0:0 (hevc) -> settb:default
  Stream #1:0 (h264) -> settb:default
  psnr:default -> Stream #0:0 (wrapped_avframe)
  Stream #0:1 -> #0:1 (aac (native) -> pcm_s16le (native))
Output #0, null, to 'pipe:':
  Metadata:
    COMPATIBLE_BRANDS: isomiso2avc1mp41
    MAJOR_BRAND     : isom
    MINOR_VERSION   : 512
    encoder         : Lavf61.7.100
  Stream #0:0: Video: wrapped_avframe, yuv420p10le(tv, bt709, progressive), 1920x1080 [SAR 1:1 DAR 16:9], q=2-31, 200 kb/s, 23.98 fps, 23.98 tbn
      Metadata:
        encoder         : Lavc61.19.100 wrapped_avframe
  Stream #0:1: Audio: pcm_s16le, 48000 Hz, stereo, s16, 1536 kb/s (default)
      Metadata:
        HANDLER_NAME    : SoundHandler
        VENDOR_ID       : [0][0][0][0]
        _STATISTICS_TAGS: BPS DURATION NUMBER_OF_FRAMES NUMBER_OF_BYTES
        BPS             : 193911
        DURATION        : 00:23:46.645000000
        NUMBER_OF_FRAMES: 66875
        NUMBER_OF_BYTES : 34580448
        _STATISTICS_WRITING_APP: mkvpropedit v66.0.0 ('Josie') 64-bit
        _STATISTICS_WRITING_DATE_UTC: 2025-06-04 07:13:13
        encoder         : Lavc61.19.100 pcm_s16le
frame=  174 fps=0.0 q=-0.0 size=N/A time=00:00:07.25 bitrate=N/A speed=13.9x    frame=  416 fps=404 q=-0.0 size=N/A time=00:00:17.35 bitrate=N/A speed=16.8x    frame=  686 fps=442 q=-0.0 size=N/A time=00:00:28.61 bitrate=N/A speed=18.4x    frame=  943 fps=456 q=-0.0 size=N/A time=00:00:39.33 bitrate=N/A speed=  19x    frame= 1156 fps=447 q=-0.0 size=N/A time=00:00:48.21 bitrate=N/A speed=18.6x    frame= 1385 fps=447 q=-0.0 size=N/A time=00:00:57.76 bitrate=N/A speed=18.7x    frame= 1616 fps=447 q=-0.0 size=N/A time=00:01:07.40 bitrate=N/A speed=18.7x    frame= 1885 fps=457 q=-0.0 size=N/A time=00:01:18.62 bitrate=N/A speed=19.1x    frame= 2109 fps=454 q=-0.0 size=N/A time=00:01:27.96 bitrate=N/A speed=18.9x    frame= 2311 fps=448 q=-0.0 size=N/A time=00:01:36.38 bitrate=N/A speed=18.7x    frame= 2531 fps=446 q=-0.0 size=N/A time=00:01:45.56 bitrate=N/A speed=18.6x    frame= 2792 fps=451 q=-0.0 size=N/A time=00:01:56.44 bitrate=N/A speed=18.8x    frame= 3034 fps=452 q=-0.0 size=N/A time=00:02:06.54 bitrate=N/A speed=18.9x    frame= 3289 fps=455 q=-0.0 size=N/A time=00:02:17.17 bitrate=N/A speed=  19x    frame= 3515 fps=455 q=-0.0 size=N/A time=00:02:26.60 bitrate=N/A speed=  19x    frame= 3764 fps=456 q=-0.0 size=N/A time=00:02:36.99 bitrate=N/A speed=  19x    frame= 3996 fps=456 q=-0.0 size=N/A time=00:02:46.66 bitrate=N/A speed=  19x    frame= 4273 fps=460 q=-0.0 size=N/A time=00:02:58.21 bitrate=N/A speed=19.2x    frame= 4489 fps=458 q=-0.0 size=N/A time=00:03:07.22 bitrate=N/A speed=19.1x    frame= 4676 fps=454 q=-0.0 size=N/A time=00:03:15.02 bitrate=N/A speed=18.9x    frame= 4878 fps=450 q=-0.0 size=N/A time=00:03:23.45 bitrate=N/A speed=18.8x    frame= 5085 fps=448 q=-0.0 size=N/A time=00:03:32.08 bitrate=N/A speed=18.7x    frame= 5331 fps=449 q=-0.0 size=N/A time=00:03:42.34 bitrate=N/A speed=18.7x    frame= 5553 fps=449 q=-0.0 size=N/A time=00:03:51.60 bitrate=N/A speed=18.7x    frame= 5801 fps=450 q=-0.0 size=N/A time=00:04:01.95 bitrate=N/A speed=18.8x    frame= 6057 fps=452 q=-0.0 size=N/A time=00:04:12.62 bitrate=N/A speed=18.8x    frame= 6333 fps=455 q=-0.0 size=N/A time=00:04:24.13 bitrate=N/A speed=  19x    frame= 6602 fps=457 q=-0.0 size=N/A time=00:04:35.35 bitrate=N/A speed=19.1x    frame= 6880 fps=460 q=-0.0 size=N/A time=00:04:46.95 bitrate=N/A speed=19.2x    frame= 7146 fps=461 q=-0.0 size=N/A time=00:04:58.04 bitrate=N/A speed=19.2x    frame= 7418 fps=464 q=-0.0 size=N/A time=00:05:09.39 bitrate=N/A speed=19.3x    frame= 7690 fps=465 q=-0.0 size=N/A time=00:05:20.77 bitrate=N/A speed=19.4x    frame= 7955 fps=467 q=-0.0 size=N/A time=00:05:31.78 bitrate=N/A speed=19.5x    frame= 8176 fps=466 q=-0.0 size=N/A time=00:05:41.00 bitrate=N/A speed=19.4x    frame= 8416 fps=466 q=-0.0 size=N/A time=00:05:51.01 bitrate=N/A speed=19.4x    frame= 8689 fps=468 q=-0.0 size=N/A time=00:06:02.40 bitrate=N/A speed=19.5x    frame= 8973 fps=470 q=-0.0 size=N/A time=00:06:14.24 bitrate=N/A speed=19.6x    frame= 9247 fps=471 q=-0.0 size=N/A time=00:06:25.67 bitrate=N/A speed=19.7x    frame= 9525 fps=473 q=-0.0 size=N/A time=00:06:37.27 bitrate=N/A speed=19.7x    frame= 9785 fps=474 q=-0.0 size=N/A time=00:06:48.11 bitrate=N/A speed=19.8x    frame=10051 fps=475 q=-0.0 size=N/A time=00:06:59.21 bitrate=N/A speed=19.8x    frame=10337 fps=477 q=-0.0 size=N/A time=00:07:11.13 bitrate=N/A speed=19.9x    frame=10604 fps=478 q=-0.0 size=N/A time=00:07:22.27 bitrate=N/A speed=19.9x    frame=10882 fps=479 q=-0.0 size=N/A time=00:07:33.87 bitrate=N/A speed=  20x    frame=11133 fps=479 q=-0.0 size=N/A time=00:07:44.33 bitrate=N/A speed=  20x    frame=11375 fps=479 q=-0.0 size=N/A time=00:07:54.43 bitrate=N/A speed=  20x    frame=11633 fps=480 q=-0.0 size=N/A time=00:08:05.19 bitrate=N/A speed=  20x    frame=11904 fps=481 q=-0.0 size=N/A time=00:08:16.49 bitrate=N/A speed=  20x    frame=12187 fps=482 q=-0.0 size=N/A time=00:08:28.29 bitrate=N/A speed=20.1x    frame=12443 fps=482 q=-0.0 size=N/A time=00:08:38.97 bitrate=N/A speed=20.1x    frame=12712 fps=483 q=-0.0 size=N/A time=00:08:50.19 bitrate=N/A speed=20.1x    frame=12958 fps=483 q=-0.0 size=N/A time=00:09:00.45 bitrate=N/A speed=20.1x    frame=13235 fps=484 q=-0.0 size=N/A time=00:09:12.00 bitrate=N/A speed=20.2x    frame=13499 fps=485 q=-0.0 size=N/A time=00:09:23.02 bitrate=N/A speed=20.2x    frame=13773 fps=485 q=-0.0 size=N/A time=00:09:34.44 bitrate=N/A speed=20.2x    frame=14050 fps=486 q=-0.0 size=N/A time=00:09:46.00 bitrate=N/A speed=20.3x    frame=14316 fps=487 q=-0.0 size=N/A time=00:09:57.09 bitrate=N/A speed=20.3x    frame=14594 fps=487 q=-0.0 size=N/A time=00:10:08.69 bitrate=N/A speed=20.3x    frame=14858 fps=488 q=-0.0 size=N/A time=00:10:19.70 bitrate=N/A speed=20.3x    frame=15130 fps=489 q=-0.0 size=N/A time=00:10:31.04 bitrate=N/A speed=20.4x    frame=15400 fps=489 q=-0.0 size=N/A time=00:10:42.30 bitrate=N/A speed=20.4x    frame=15640 fps=489 q=-0.0 size=N/A time=00:10:52.31 bitrate=N/A speed=20.4x    frame=15901 fps=489 q=-0.0 size=N/A time=00:11:03.20 bitrate=N/A speed=20.4x    frame=16165 fps=489 q=-0.0 size=N/A time=00:11:14.21 bitrate=N/A speed=20.4x    frame=16434 fps=490 q=-0.0 size=N/A time=00:11:25.43 bitrate=N/A speed=20.4x    frame=16703 fps=490 q=-0.0 size=N/A time=00:11:36.65 bitrate=N/A speed=20.4x    frame=16969 fps=491 q=-0.0 size=N/A time=00:11:47.74 bitrate=N/A speed=20.5x    frame=17209 fps=490 q=-0.0 size=N/A time=00:11:57.75 bitrate=N/A speed=20.4x    frame=17475 fps=491 q=-0.0 size=N/A time=00:12:08.85 bitrate=N/A speed=20.5x    frame=17750 fps=491 q=-0.0 size=N/A time=00:12:20.32 bitrate=N/A speed=20.5x    frame=18018 fps=491 q=-0.0 size=N/A time=00:12:31.50 bitrate=N/A speed=20.5x    frame=18291 fps=492 q=-0.0 size=N/A time=00:12:42.88 bitrate=N/A speed=20.5x    frame=18559 fps=492 q=-0.0 size=N/A time=00:12:54.06 bitrate=N/A speed=20.5x    frame=18844 fps=493 q=-0.0 size=N/A time=00:13:05.95 bitrate=N/A speed=20.6x    frame=19124 fps=494 q=-0.0 size=N/A time=00:13:17.63 bitrate=N/A speed=20.6x    frame=19410 fps=494 q=-0.0 size=N/A time=00:13:29.55 bitrate=N/A speed=20.6x    frame=19682 fps=495 q=-0.0 size=N/A time=00:13:40.90 bitrate=N/A speed=20.6x    frame=19957 fps=495 q=-0.0 size=N/A time=00:13:52.37 bitrate=N/A speed=20.7x    frame=20225 fps=496 q=-0.0 size=N/A time=00:14:03.55 bitrate=N/A speed=20.7x    frame=20487 fps=496 q=-0.0 size=N/A time=00:14:14.47 bitrate=N/A speed=20.7x    frame=20744 fps=496 q=-0.0 size=N/A time=00:14:25.19 bitrate=N/A speed=20.7x    frame=21004 fps=496 q=-0.0 size=N/A time=00:14:36.04 bitrate=N/A speed=20.7x    frame=21267 fps=496 q=-0.0 size=N/A time=00:14:47.01 bitrate=N/A speed=20.7x    frame=21513 fps=496 q=-0.0 size=N/A time=00:14:57.27 bitrate=N/A speed=20.7x    frame=21769 fps=496 q=-0.0 size=N/A time=00:15:07.94 bitrate=N/A speed=20.7x    frame=22030 fps=496 q=-0.0 size=N/A time=00:15:18.83 bitrate=N/A speed=20.7x    frame=22266 fps=496 q=-0.0 size=N/A time=00:15:28.67 bitrate=N/A speed=20.7x    frame=22493 fps=495 q=-0.0 size=N/A time=00:15:38.14 bitrate=N/A speed=20.6x    frame=22770 fps=495 q=-0.0 size=N/A time=00:15:49.69 bitrate=N/A speed=20.7x    frame=23037 fps=496 q=-0.0 size=N/A time=00:16:00.83 bitrate=N/A speed=20.7x    frame=23305 fps=496 q=-0.0 size=N/A time=00:16:12.01 bitrate=N/A speed=20.7x    frame=23537 fps=495 q=-0.0 size=N/A time=00:16:21.68 bitrate=N/A speed=20.7x    frame=23783 fps=495 q=-0.0 size=N/A time=00:16:31.94 bitrate=N/A speed=20.7x    frame=24064 fps=496 q=-0.0 size=N/A time=00:16:43.66 bitrate=N/A speed=20.7x    frame=24316 fps=496 q=-0.0 size=N/A time=00:16:54.17 bitrate=N/A speed=20.7x    frame=24583 fps=496 q=-0.0 size=N/A time=00:17:05.31 bitrate=N/A speed=20.7x    frame=24874 fps=497 q=-0.0 size=N/A time=00:17:17.45 bitrate=N/A speed=20.7x    frame=25146 fps=497 q=-0.0 size=N/A time=00:17:28.79 bitrate=N/A speed=20.7x    frame=25414 fps=497 q=-0.0 size=N/A time=00:17:39.97 bitrate=N/A speed=20.7x    frame=25674 fps=497 q=-0.0 size=N/A time=00:17:50.81 bitrate=N/A speed=20.7x    frame=25926 fps=497 q=-0.0 size=N/A time=00:18:01.33 bitrate=N/A speed=20.7x    frame=26192 fps=497 q=-0.0 size=N/A time=00:18:12.42 bitrate=N/A speed=20.7x    frame=26451 fps=497 q=-0.0 size=N/A time=00:18:23.22 bitrate=N/A speed=20.7x    frame=26702 fps=497 q=-0.0 size=N/A time=00:18:33.69 bitrate=N/A speed=20.7x    frame=26950 fps=497 q=-0.0 size=N/A time=00:18:44.03 bitrate=N/A speed=20.7x    frame=27222 fps=497 q=-0.0 size=N/A time=00:18:55.38 bitrate=N/A speed=20.7x    frame=27504 fps=498 q=-0.0 size=N/A time=00:19:07.18 bitrate=N/A speed=20.8x    frame=27767 fps=498 q=-0.0 size=N/A time=00:19:18.11 bitrate=N/A speed=20.8x    frame=28060 fps=499 q=-0.0 size=N/A time=00:19:30.33 bitrate=N/A speed=20.8x    frame=28327 fps=499 q=-0.0 size=N/A time=00:19:41.47 bitrate=N/A speed=20.8x    frame=28613 fps=499 q=-0.0 size=N/A time=00:19:53.40 bitrate=N/A speed=20.8x    frame=28881 fps=500 q=-0.0 size=N/A time=00:20:04.57 bitrate=N/A speed=20.8x    frame=29161 fps=500 q=-0.0 size=N/A time=00:20:16.25 bitrate=N/A speed=20.8x    frame=29432 fps=500 q=-0.0 size=N/A time=00:20:27.55 bitrate=N/A speed=20.9x    frame=29719 fps=501 q=-0.0 size=N/A time=00:20:39.52 bitrate=N/A speed=20.9x    frame=29993 fps=501 q=-0.0 size=N/A time=00:20:50.95 bitrate=N/A speed=20.9x    frame=30275 fps=501 q=-0.0 size=N/A time=00:21:02.71 bitrate=N/A speed=20.9x    frame=30560 fps=502 q=-0.0 size=N/A time=00:21:14.60 bitrate=N/A speed=20.9x    frame=30842 fps=502 q=-0.0 size=N/A time=00:21:26.36 bitrate=N/A speed=20.9x    frame=31098 fps=502 q=-0.0 size=N/A time=00:21:37.04 bitrate=N/A speed=20.9x    frame=31372 fps=502 q=-0.0 size=N/A time=00:21:48.47 bitrate=N/A speed=20.9x    frame=31642 fps=502 q=-0.0 size=N/A time=00:21:59.73 bitrate=N/A speed=  21x    frame=31870 fps=502 q=-0.0 size=N/A time=00:22:09.24 bitrate=N/A speed=20.9x    frame=32135 fps=502 q=-0.0 size=N/A time=00:22:20.29 bitrate=N/A speed=20.9x    frame=32372 fps=502 q=-0.0 size=N/A time=00:22:30.18 bitrate=N/A speed=20.9x    frame=32572 fps=501 q=-0.0 size=N/A time=00:22:38.52 bitrate=N/A speed=20.9x    frame=32815 fps=501 q=-0.0 size=N/A time=00:22:48.65 bitrate=N/A speed=20.9x    frame=33069 fps=500 q=-0.0 size=N/A time=00:22:59.25 bitrate=N/A speed=20.9x    frame=33281 fps=500 q=-0.0 size=N/A time=00:23:08.09 bitrate=N/A speed=20.8x    frame=33536 fps=500 q=-0.0 size=N/A time=00:23:18.73 bitrate=N/A speed=20.8x    frame=33795 fps=500 q=-0.0 size=N/A time=00:23:29.53 bitrate=N/A speed=20.8x    frame=34035 fps=500 q=-0.0 size=N/A time=00:23:39.54 bitrate=N/A speed=20.8x    [Parsed_psnr_10 @ 00000294a94d8680] PSNR y:49.951295 u:50.707287 v:51.494650 average:50.296810 min:40.836037 max:inf
[out#0/null @ 00000294a7675a00] video:14697KiB audio:267500KiB subtitle:0KiB other streams:0KiB global headers:0KiB muxing overhead: unknown
frame=34203 fps=500 q=-0.0 Lsize=N/A time=00:23:46.55 bitrate=N/A speed=20.8x    
